<?xml version="1.0" encoding="UTF-8" standalone="no"?>
<!DOCTYPE svg PUBLIC "-//W3C//DTD SVG 1.1//EN"
 "http://www.w3.org/Graphics/SVG/1.1/DTD/svg11.dtd">
<!-- Generated by graphviz version 2.40.1 (20161225.0304)
 -->
<!-- Title: %3 Pages: 1 -->
<svg width="816pt" height="332pt"
 viewBox="0.00 0.00 816.17 332.00" xmlns="http://www.w3.org/2000/svg" xmlns:xlink="http://www.w3.org/1999/xlink">
<g id="graph0" class="graph" transform="scale(1 1) rotate(0) translate(4 328)">
<title>%3</title>
<polygon fill="#ffffff" stroke="transparent" points="-4,4 -4,-328 812.166,-328 812.166,4 -4,4"/>
<!-- [root] aws_instance.ubuntu_instance -->
<g id="node1" class="node">
<title>[root] aws_instance.ubuntu_instance</title>
<polygon fill="none" stroke="#000000" points="808.1162,-180 622.3154,-180 622.3154,-144 808.1162,-144 808.1162,-180"/>
<text text-anchor="middle" x="715.2158" y="-157.8" font-family="Times,serif" font-size="14.00" fill="#000000">aws_instance.ubuntu_instance</text>
</g>
<!-- [root] data.aws_ami.ubuntu -->
<g id="node6" class="node">
<title>[root] data.aws_ami.ubuntu</title>
<polygon fill="none" stroke="#000000" points="723.6885,-108 588.7432,-108 588.7432,-72 723.6885,-72 723.6885,-108"/>
<text text-anchor="middle" x="656.2158" y="-85.8" font-family="Times,serif" font-size="14.00" fill="#000000">data.aws_ami.ubuntu</text>
</g>
<!-- [root] aws_instance.ubuntu_instance&#45;&gt;[root] data.aws_ami.ubuntu -->
<g id="edge1" class="edge">
<title>[root] aws_instance.ubuntu_instance&#45;&gt;[root] data.aws_ami.ubuntu</title>
<path fill="none" stroke="#000000" d="M700.3276,-143.8314C693.4628,-135.454 685.1858,-125.3531 677.6647,-116.1749"/>
<polygon fill="#000000" stroke="#000000" points="680.3499,-113.9297 671.3045,-108.4133 674.9355,-118.3665 680.3499,-113.9297"/>
</g>
<!-- [root] aws_security_group.test&#45;aws&#45;security&#45;group -->
<g id="node2" class="node">
<title>[root] aws_security_group.test&#45;aws&#45;security&#45;group</title>
<polygon fill="none" stroke="#000000" points="264.6478,-180 -.2162,-180 -.2162,-144 264.6478,-144 264.6478,-180"/>
<text text-anchor="middle" x="132.2158" y="-157.8" font-family="Times,serif" font-size="14.00" fill="#000000">aws_security_group.test&#45;aws&#45;security&#45;group</text>
</g>
<!-- [root] aws_vpc.test&#45;aws&#45;vpc -->
<g id="node5" class="node">
<title>[root] aws_vpc.test&#45;aws&#45;vpc</title>
<polygon fill="none" stroke="#000000" points="512.9543,-108 373.4773,-108 373.4773,-72 512.9543,-72 512.9543,-108"/>
<text text-anchor="middle" x="443.2158" y="-85.8" font-family="Times,serif" font-size="14.00" fill="#000000">aws_vpc.test&#45;aws&#45;vpc</text>
</g>
<!-- [root] aws_security_group.test&#45;aws&#45;security&#45;group&#45;&gt;[root] aws_vpc.test&#45;aws&#45;vpc -->
<g id="edge2" class="edge">
<title>[root] aws_security_group.test&#45;aws&#45;security&#45;group&#45;&gt;[root] aws_vpc.test&#45;aws&#45;vpc</title>
<path fill="none" stroke="#000000" d="M210.2928,-143.9243C257.1597,-133.0741 316.6241,-119.3074 363.7388,-108.3998"/>
<polygon fill="#000000" stroke="#000000" points="364.6432,-111.7831 373.5961,-106.1178 363.0643,-104.9635 364.6432,-111.7831"/>
</g>
<!-- [root] aws_subnet.awsSubnet1 -->
<g id="node3" class="node">
<title>[root] aws_subnet.awsSubnet1</title>
<polygon fill="none" stroke="#000000" points="434.7029,-180 281.7287,-180 281.7287,-144 434.7029,-144 434.7029,-180"/>
<text text-anchor="middle" x="358.2158" y="-157.8" font-family="Times,serif" font-size="14.00" fill="#000000">aws_subnet.awsSubnet1</text>
</g>
<!-- [root] aws_subnet.awsSubnet1&#45;&gt;[root] aws_vpc.test&#45;aws&#45;vpc -->
<g id="edge3" class="edge">
<title>[root] aws_subnet.awsSubnet1&#45;&gt;[root] aws_vpc.test&#45;aws&#45;vpc</title>
<path fill="none" stroke="#000000" d="M379.6649,-143.8314C390.0336,-135.0485 402.6387,-124.3712 413.8804,-114.8489"/>
<polygon fill="#000000" stroke="#000000" points="416.4053,-117.297 421.7736,-108.1628 411.8809,-111.9556 416.4053,-117.297"/>
</g>
<!-- [root] aws_subnet.awsSubnet2 -->
<g id="node4" class="node">
<title>[root] aws_subnet.awsSubnet2</title>
<polygon fill="none" stroke="#000000" points="604.7029,-180 451.7287,-180 451.7287,-144 604.7029,-144 604.7029,-180"/>
<text text-anchor="middle" x="528.2158" y="-157.8" font-family="Times,serif" font-size="14.00" fill="#000000">aws_subnet.awsSubnet2</text>
</g>
<!-- [root] aws_subnet.awsSubnet2&#45;&gt;[root] aws_vpc.test&#45;aws&#45;vpc -->
<g id="edge4" class="edge">
<title>[root] aws_subnet.awsSubnet2&#45;&gt;[root] aws_vpc.test&#45;aws&#45;vpc</title>
<path fill="none" stroke="#000000" d="M506.7667,-143.8314C496.398,-135.0485 483.7929,-124.3712 472.5513,-114.8489"/>
<polygon fill="#000000" stroke="#000000" points="474.5507,-111.9556 464.658,-108.1628 470.0263,-117.297 474.5507,-111.9556"/>
</g>
<!-- [root] provider.aws -->
<g id="node7" class="node">
<title>[root] provider.aws</title>
<polygon fill="none" stroke="#000000" points="520.2158,-36 441.6075,-18 520.2158,0 598.8242,-18 520.2158,-36"/>
<text text-anchor="middle" x="520.2158" y="-13.8" font-family="Times,serif" font-size="14.00" fill="#000000">provider.aws</text>
</g>
<!-- [root] aws_vpc.test&#45;aws&#45;vpc&#45;&gt;[root] provider.aws -->
<g id="edge5" class="edge">
<title>[root] aws_vpc.test&#45;aws&#45;vpc&#45;&gt;[root] provider.aws</title>
<path fill="none" stroke="#000000" d="M462.6462,-71.8314C473.1145,-62.0428 486.0993,-49.9012 497.0861,-39.6278"/>
<polygon fill="#000000" stroke="#000000" points="499.7547,-41.9242 504.6685,-32.5378 494.9737,-36.8113 499.7547,-41.9242"/>
</g>
<!-- [root] data.aws_ami.ubuntu&#45;&gt;[root] provider.aws -->
<g id="edge6" class="edge">
<title>[root] data.aws_ami.ubuntu&#45;&gt;[root] provider.aws</title>
<path fill="none" stroke="#000000" d="M621.8973,-71.8314C600.8799,-60.7045 574.1194,-46.5372 553.3274,-35.5296"/>
<polygon fill="#000000" stroke="#000000" points="554.7119,-32.3024 544.2364,-30.7168 551.4366,-38.4889 554.7119,-32.3024"/>
</g>
<!-- [root] meta.count&#45;boundary (count boundary fixup) -->
<g id="node8" class="node">
<title>[root] meta.count&#45;boundary (count boundary fixup)</title>
<ellipse fill="none" stroke="#000000" cx="286.2158" cy="-234" rx="191.6931" ry="18"/>
<text text-anchor="middle" x="286.2158" y="-229.8" font-family="Times,serif" font-size="14.00" fill="#000000">[root] meta.count&#45;boundary (count boundary fixup)</text>
</g>
<!-- [root] meta.count&#45;boundary (count boundary fixup)&#45;&gt;[root] aws_instance.ubuntu_instance -->
<g id="edge7" class="edge">
<title>[root] meta.count&#45;boundary (count boundary fixup)&#45;&gt;[root] aws_instance.ubuntu_instance</title>
<path fill="none" stroke="#000000" d="M382.4864,-218.3879C445.1651,-208.1559 528.983,-194.3467 612.2279,-180.1603"/>
<polygon fill="#000000" stroke="#000000" points="612.8431,-183.606 622.1118,-178.4737 611.6655,-176.7058 612.8431,-183.606"/>
</g>
<!-- [root] meta.count&#45;boundary (count boundary fixup)&#45;&gt;[root] aws_security_group.test&#45;aws&#45;security&#45;group -->
<g id="edge8" class="edge">
<title>[root] meta.count&#45;boundary (count boundary fixup)&#45;&gt;[root] aws_security_group.test&#45;aws&#45;security&#45;group</title>
<path fill="none" stroke="#000000" d="M248.1484,-216.2022C227.5732,-206.5827 201.9652,-194.6101 180.0538,-184.3658"/>
<polygon fill="#000000" stroke="#000000" points="181.4562,-181.1579 170.915,-180.0931 178.4915,-187.4991 181.4562,-181.1579"/>
</g>
<!-- [root] meta.count&#45;boundary (count boundary fixup)&#45;&gt;[root] aws_subnet.awsSubnet1 -->
<g id="edge9" class="edge">
<title>[root] meta.count&#45;boundary (count boundary fixup)&#45;&gt;[root] aws_subnet.awsSubnet1</title>
<path fill="none" stroke="#000000" d="M304.3845,-215.8314C312.9311,-207.2848 323.2715,-196.9443 332.596,-187.6198"/>
<polygon fill="#000000" stroke="#000000" points="335.2063,-189.9592 339.8026,-180.4133 330.2566,-185.0095 335.2063,-189.9592"/>
</g>
<!-- [root] meta.count&#45;boundary (count boundary fixup)&#45;&gt;[root] aws_subnet.awsSubnet2 -->
<g id="edge10" class="edge">
<title>[root] meta.count&#45;boundary (count boundary fixup)&#45;&gt;[root] aws_subnet.awsSubnet2</title>
<path fill="none" stroke="#000000" d="M344.1808,-216.7542C378.1795,-206.6389 421.3899,-193.7829 457.3959,-183.0704"/>
<polygon fill="#000000" stroke="#000000" points="458.7601,-186.3162 467.3467,-180.1098 456.7638,-179.6069 458.7601,-186.3162"/>
</g>
<!-- [root] provider.aws (close) -->
<g id="node9" class="node">
<title>[root] provider.aws (close)</title>
<ellipse fill="none" stroke="#000000" cx="600.2158" cy="-234" rx="104.3276" ry="18"/>
<text text-anchor="middle" x="600.2158" y="-229.8" font-family="Times,serif" font-size="14.00" fill="#000000">[root] provider.aws (close)</text>
</g>
<!-- [root] provider.aws (close)&#45;&gt;[root] aws_instance.ubuntu_instance -->
<g id="edge11" class="edge">
<title>[root] provider.aws (close)&#45;&gt;[root] aws_instance.ubuntu_instance</title>
<path fill="none" stroke="#000000" d="M628.0541,-216.5708C642.9733,-207.2301 661.5613,-195.5924 677.7347,-185.4664"/>
<polygon fill="#000000" stroke="#000000" points="679.8144,-188.2938 686.4329,-180.0206 676.0997,-182.3607 679.8144,-188.2938"/>
</g>
<!-- [root] provider.aws (close)&#45;&gt;[root] aws_security_group.test&#45;aws&#45;security&#45;group -->
<g id="edge12" class="edge">
<title>[root] provider.aws (close)&#45;&gt;[root] aws_security_group.test&#45;aws&#45;security&#45;group</title>
<path fill="none" stroke="#000000" d="M523.639,-221.7275C511.4571,-219.7967 498.9932,-217.8337 487.2158,-216 412.8053,-204.4143 329.5741,-191.7387 262.4151,-181.5816"/>
<polygon fill="#000000" stroke="#000000" points="262.6136,-178.0719 252.2027,-180.0377 261.5672,-184.9932 262.6136,-178.0719"/>
</g>
<!-- [root] provider.aws (close)&#45;&gt;[root] aws_subnet.awsSubnet1 -->
<g id="edge13" class="edge">
<title>[root] provider.aws (close)&#45;&gt;[root] aws_subnet.awsSubnet1</title>
<path fill="none" stroke="#000000" d="M547.7054,-218.3771C512.8683,-208.0123 466.7372,-194.2874 428.7143,-182.9748"/>
<polygon fill="#000000" stroke="#000000" points="429.3119,-179.501 418.729,-180.0039 427.3157,-186.2103 429.3119,-179.501"/>
</g>
<!-- [root] provider.aws (close)&#45;&gt;[root] aws_subnet.awsSubnet2 -->
<g id="edge14" class="edge">
<title>[root] provider.aws (close)&#45;&gt;[root] aws_subnet.awsSubnet2</title>
<path fill="none" stroke="#000000" d="M582.4181,-216.2022C573.7433,-207.5275 563.155,-196.9391 553.6462,-187.4304"/>
<polygon fill="#000000" stroke="#000000" points="555.8549,-184.6893 546.3089,-180.0931 550.9052,-189.6391 555.8549,-184.6893"/>
</g>
<!-- [root] root -->
<g id="node10" class="node">
<title>[root] root</title>
<ellipse fill="none" stroke="#000000" cx="443.2158" cy="-306" rx="46.8976" ry="18"/>
<text text-anchor="middle" x="443.2158" y="-301.8" font-family="Times,serif" font-size="14.00" fill="#000000">[root] root</text>
</g>
<!-- [root] root&#45;&gt;[root] meta.count&#45;boundary (count boundary fixup) -->
<g id="edge15" class="edge">
<title>[root] root&#45;&gt;[root] meta.count&#45;boundary (count boundary fixup)</title>
<path fill="none" stroke="#000000" d="M412.9446,-292.1177C390.5651,-281.8544 359.647,-267.6754 333.9525,-255.892"/>
<polygon fill="#000000" stroke="#000000" points="335.2967,-252.658 324.748,-251.6708 332.3787,-259.0208 335.2967,-252.658"/>
</g>
<!-- [root] root&#45;&gt;[root] provider.aws (close) -->
<g id="edge16" class="edge">
<title>[root] root&#45;&gt;[root] provider.aws (close)</title>
<path fill="none" stroke="#000000" d="M473.487,-292.1177C496.3427,-281.6361 528.1042,-267.0703 554.112,-255.1432"/>
<polygon fill="#000000" stroke="#000000" points="555.7756,-258.2308 563.4063,-250.8808 552.8575,-251.868 555.7756,-258.2308"/>
</g>
</g>
</svg>
